<svg width="1024" height="753" viewBox="0 0 1024 753" fill="none" xmlns="http://www.w3.org/2000/svg">
<g opacity="0.2" filter="url(#filter0_f_175_198)">
<ellipse cx="518.5" cy="43" rx="670.5" ry="350" fill="#55225E"/>
</g>
<path d="M39.0349 279C40.5302 279 41.6622 279.63 42.4308 280.891C43.2134 282.138 43.6047 283.953 43.6047 286.336C43.6047 288.719 43.2134 290.541 42.4308 291.802C41.6622 293.063 40.5302 293.693 39.0349 293.693C37.5536 293.693 36.4216 293.063 35.639 291.802C34.8564 290.541 34.4651 288.719 34.4651 286.336C34.4651 283.967 34.8564 282.152 35.639 280.891C36.4216 279.63 37.5536 279 39.0349 279ZM35.9534 286.336C35.9534 288.026 36.1072 289.35 36.4146 290.306L41.0683 281.099C40.5791 280.448 39.9013 280.122 39.0349 280.122C38.0706 280.122 37.316 280.635 36.771 281.66C36.2259 282.672 35.9534 284.23 35.9534 286.336ZM39.0349 292.55C40.0131 292.55 40.7748 292.044 41.3198 291.033C41.8648 290.008 42.1373 288.442 42.1373 286.336C42.1373 284.549 41.9627 283.163 41.6133 282.18L36.9596 291.469C37.4627 292.19 38.1545 292.55 39.0349 292.55Z" fill="url(#paint0_linear_175_198)" fill-opacity="0.6"/>
<path d="M40.2926 316.135H43.3741V317.236H35.3874V316.135H38.9511V304.455L35.5551 306.471L34.9682 305.536L39.1607 302.959H40.2926V316.135Z" fill="url(#paint1_linear_175_198)" fill-opacity="0.6"/>
<path d="M39.0349 326.502C40.5302 326.502 41.6622 327.133 42.4308 328.393C43.2134 329.64 43.6047 331.455 43.6047 333.838C43.6047 336.221 43.2134 338.043 42.4308 339.304C41.6622 340.565 40.5302 341.195 39.0349 341.195C37.5536 341.195 36.4216 340.565 35.639 339.304C34.8564 338.043 34.4651 336.221 34.4651 333.838C34.4651 331.469 34.8564 329.654 35.639 328.393C36.4216 327.133 37.5536 326.502 39.0349 326.502ZM35.9534 333.838C35.9534 335.529 36.1072 336.852 36.4146 337.808L41.0683 328.601C40.5791 327.95 39.9013 327.624 39.0349 327.624C38.0706 327.624 37.316 328.137 36.771 329.162C36.2259 330.174 35.9534 331.732 35.9534 333.838ZM39.0349 340.052C40.0131 340.052 40.7748 339.546 41.3198 338.535C41.8648 337.51 42.1373 335.944 42.1373 333.838C42.1373 332.051 41.9627 330.665 41.6133 329.682L36.9596 338.971C37.4627 339.692 38.1545 340.052 39.0349 340.052Z" fill="url(#paint2_linear_175_198)" fill-opacity="0.6"/>
<path d="M40.2926 363.637H43.3741V364.738H35.3874V363.637H38.9511V351.957L35.5551 353.973L34.9682 353.038L39.1607 350.461H40.2926V363.637Z" fill="url(#paint3_linear_175_198)" fill-opacity="0.6"/>
<path d="M40.2926 387.388H43.3741V388.489H35.3874V387.388H38.9511V375.708L35.5551 377.724L34.9682 376.789L39.1607 374.212H40.2926V387.388Z" fill="url(#paint4_linear_175_198)" fill-opacity="0.6"/>
<path d="M39.0349 397.755C40.5302 397.755 41.6622 398.386 42.4308 399.646C43.2134 400.893 43.6047 402.708 43.6047 405.091C43.6047 407.474 43.2134 409.296 42.4308 410.557C41.6622 411.818 40.5302 412.448 39.0349 412.448C37.5536 412.448 36.4216 411.818 35.639 410.557C34.8564 409.296 34.4651 407.474 34.4651 405.091C34.4651 402.722 34.8564 400.907 35.639 399.646C36.4216 398.386 37.5536 397.755 39.0349 397.755ZM35.9534 405.091C35.9534 406.782 36.1072 408.105 36.4146 409.061L41.0683 399.854C40.5791 399.203 39.9013 398.878 39.0349 398.878C38.0706 398.878 37.316 399.39 36.771 400.415C36.2259 401.427 35.9534 402.985 35.9534 405.091ZM39.0349 411.305C40.0131 411.305 40.7748 410.8 41.3198 409.788C41.8648 408.763 42.1373 407.197 42.1373 405.091C42.1373 403.304 41.9627 401.919 41.6133 400.935L36.9596 410.225C37.4627 410.945 38.1545 411.305 39.0349 411.305Z" fill="url(#paint5_linear_175_198)" fill-opacity="0.6"/>
<path d="M40.2926 434.89H43.3741V435.992H35.3874V434.89H38.9511V423.21L35.5551 425.226L34.9682 424.291L39.1607 421.714H40.2926V434.89Z" fill="url(#paint6_linear_175_198)" fill-opacity="0.6"/>
<path d="M39.0349 445.257C40.5302 445.257 41.6622 445.888 42.4308 447.149C43.2134 448.396 43.6047 450.211 43.6047 452.594C43.6047 454.977 43.2134 456.798 42.4308 458.059C41.6622 459.32 40.5302 459.95 39.0349 459.95C37.5536 459.95 36.4216 459.32 35.639 458.059C34.8564 456.798 34.4651 454.977 34.4651 452.594C34.4651 450.224 34.8564 448.409 35.639 447.149C36.4216 445.888 37.5536 445.257 39.0349 445.257ZM35.9534 452.594C35.9534 454.284 36.1072 455.607 36.4146 456.563L41.0683 447.356C40.5791 446.705 39.9013 446.38 39.0349 446.38C38.0706 446.38 37.316 446.892 36.771 447.918C36.2259 448.929 35.9534 450.488 35.9534 452.594ZM39.0349 458.807C40.0131 458.807 40.7748 458.302 41.3198 457.29C41.8648 456.265 42.1373 454.699 42.1373 452.594C42.1373 450.806 41.9627 449.421 41.6133 448.437L36.9596 457.727C37.4627 458.447 38.1545 458.807 39.0349 458.807Z" fill="url(#paint7_linear_175_198)" fill-opacity="0.6"/>
<path d="M39.0349 469.008C40.5302 469.008 41.6622 469.639 42.4308 470.9C43.2134 472.147 43.6047 473.962 43.6047 476.345C43.6047 478.728 43.2134 480.549 42.4308 481.81C41.6622 483.071 40.5302 483.701 39.0349 483.701C37.5536 483.701 36.4216 483.071 35.639 481.81C34.8564 480.549 34.4651 478.728 34.4651 476.345C34.4651 473.975 34.8564 472.16 35.639 470.9C36.4216 469.639 37.5536 469.008 39.0349 469.008ZM35.9534 476.345C35.9534 478.035 36.1072 479.358 36.4146 480.314L41.0683 471.107C40.5791 470.456 39.9013 470.131 39.0349 470.131C38.0706 470.131 37.316 470.643 36.771 471.669C36.2259 472.68 35.9534 474.239 35.9534 476.345ZM39.0349 482.558C40.0131 482.558 40.7748 482.053 41.3198 481.041C41.8648 480.016 42.1373 478.451 42.1373 476.345C42.1373 474.557 41.9627 473.172 41.6133 472.188L36.9596 481.478C37.4627 482.198 38.1545 482.558 39.0349 482.558Z" fill="url(#paint8_linear_175_198)" fill-opacity="0.6"/>
<path d="M40.2926 506.143H43.3741V507.245H35.3874V506.143H38.9511V494.464L35.5551 496.48L34.9682 495.544L39.1607 492.967H40.2926V506.143Z" fill="url(#paint9_linear_175_198)" fill-opacity="0.6"/>
<path d="M39.0349 516.511C40.5302 516.511 41.6622 517.141 42.4308 518.402C43.2134 519.649 43.6047 521.464 43.6047 523.847C43.6047 526.23 43.2134 528.052 42.4308 529.312C41.6622 530.573 40.5302 531.204 39.0349 531.204C37.5536 531.204 36.4216 530.573 35.639 529.312C34.8564 528.052 34.4651 526.23 34.4651 523.847C34.4651 521.478 34.8564 519.663 35.639 518.402C36.4216 517.141 37.5536 516.511 39.0349 516.511ZM35.9534 523.847C35.9534 525.537 36.1072 526.86 36.4146 527.816L41.0683 518.61C40.5791 517.958 39.9013 517.633 39.0349 517.633C38.0706 517.633 37.316 518.145 36.771 519.171C36.2259 520.182 35.9534 521.741 35.9534 523.847ZM39.0349 530.061C40.0131 530.061 40.7748 529.555 41.3198 528.543C41.8648 527.518 42.1373 525.953 42.1373 523.847C42.1373 522.059 41.9627 520.674 41.6133 519.69L36.9596 528.98C37.4627 529.7 38.1545 530.061 39.0349 530.061Z" fill="url(#paint10_linear_175_198)" fill-opacity="0.6"/>
<path d="M40.2926 553.645H43.3741V554.747H35.3874V553.645H38.9511V541.966L35.5551 543.982L34.9682 543.046L39.1607 540.469H40.2926V553.645Z" fill="url(#paint11_linear_175_198)" fill-opacity="0.6"/>
<path d="M40.2926 577.396H43.3741V578.498H35.3874V577.396H38.9511V565.717L35.5551 567.733L34.9682 566.798L39.1607 564.221H40.2926V577.396Z" fill="url(#paint12_linear_175_198)" fill-opacity="0.6"/>
<path d="M77.9651 326.502C79.4604 326.502 80.5924 327.133 81.361 328.393C82.1436 329.64 82.5349 331.455 82.5349 333.838C82.5349 336.221 82.1436 338.043 81.361 339.304C80.5924 340.565 79.4604 341.195 77.9651 341.195C76.4838 341.195 75.3518 340.565 74.5692 339.304C73.7866 338.043 73.3953 336.221 73.3953 333.838C73.3953 331.469 73.7866 329.654 74.5692 328.393C75.3518 327.133 76.4838 326.502 77.9651 326.502ZM74.8836 333.838C74.8836 335.529 75.0374 336.852 75.3448 337.808L79.9985 328.601C79.5093 327.95 78.8315 327.624 77.9651 327.624C77.0008 327.624 76.2462 328.137 75.7012 329.162C75.1561 330.174 74.8836 331.732 74.8836 333.838ZM77.9651 340.052C78.9433 340.052 79.705 339.546 80.25 338.535C80.795 337.51 81.0675 335.944 81.0675 333.838C81.0675 332.051 80.8928 330.665 80.5435 329.682L75.8898 338.971C76.3929 339.692 77.0847 340.052 77.9651 340.052Z" fill="url(#paint13_linear_175_198)" fill-opacity="0.6"/>
<path d="M79.2228 363.637H82.3043V364.738H74.3176V363.637H77.8812V351.957L74.4853 353.973L73.8984 353.038L78.0909 350.461H79.2228V363.637Z" fill="url(#paint14_linear_175_198)" fill-opacity="0.6"/>
<path d="M77.9651 374.004C79.4604 374.004 80.5924 374.635 81.361 375.895C82.1436 377.142 82.5349 378.957 82.5349 381.34C82.5349 383.723 82.1436 385.545 81.361 386.806C80.5924 388.067 79.4604 388.697 77.9651 388.697C76.4838 388.697 75.3518 388.067 74.5692 386.806C73.7866 385.545 73.3953 383.723 73.3953 381.34C73.3953 378.971 73.7866 377.156 74.5692 375.895C75.3518 374.635 76.4838 374.004 77.9651 374.004ZM74.8836 381.34C74.8836 383.031 75.0374 384.354 75.3448 385.31L79.9985 376.103C79.5093 375.452 78.8315 375.126 77.9651 375.126C77.0008 375.126 76.2462 375.639 75.7012 376.664C75.1561 377.676 74.8836 379.234 74.8836 381.34ZM77.9651 387.554C78.9433 387.554 79.705 387.049 80.25 386.037C80.795 385.012 81.0675 383.446 81.0675 381.34C81.0675 379.553 80.8928 378.168 80.5435 377.184L75.8898 386.474C76.3929 387.194 77.0847 387.554 77.9651 387.554Z" fill="url(#paint15_linear_175_198)" fill-opacity="0.6"/>
<path d="M77.9651 397.755C79.4604 397.755 80.5924 398.386 81.361 399.646C82.1436 400.893 82.5349 402.708 82.5349 405.091C82.5349 407.474 82.1436 409.296 81.361 410.557C80.5924 411.818 79.4604 412.448 77.9651 412.448C76.4838 412.448 75.3518 411.818 74.5692 410.557C73.7866 409.296 73.3953 407.474 73.3953 405.091C73.3953 402.722 73.7866 400.907 74.5692 399.646C75.3518 398.386 76.4838 397.755 77.9651 397.755ZM74.8836 405.091C74.8836 406.782 75.0374 408.105 75.3448 409.061L79.9985 399.854C79.5093 399.203 78.8315 398.878 77.9651 398.878C77.0008 398.878 76.2462 399.39 75.7012 400.415C75.1561 401.427 74.8836 402.985 74.8836 405.091ZM77.9651 411.305C78.9433 411.305 79.705 410.8 80.25 409.788C80.795 408.763 81.0675 407.197 81.0675 405.091C81.0675 403.304 80.8928 401.919 80.5435 400.935L75.8898 410.225C76.3929 410.945 77.0847 411.305 77.9651 411.305Z" fill="url(#paint16_linear_175_198)" fill-opacity="0.6"/>
<path d="M79.2228 434.89H82.3043V435.992H74.3176V434.89H77.8812V423.21L74.4853 425.226L73.8984 424.291L78.0909 421.714H79.2228V434.89Z" fill="url(#paint17_linear_175_198)" fill-opacity="0.6"/>
<path d="M77.9651 445.257C79.4604 445.257 80.5924 445.888 81.361 447.149C82.1436 448.396 82.5349 450.211 82.5349 452.594C82.5349 454.977 82.1436 456.798 81.361 458.059C80.5924 459.32 79.4604 459.95 77.9651 459.95C76.4838 459.95 75.3518 459.32 74.5692 458.059C73.7866 456.798 73.3953 454.977 73.3953 452.594C73.3953 450.224 73.7866 448.409 74.5692 447.149C75.3518 445.888 76.4838 445.257 77.9651 445.257ZM74.8836 452.594C74.8836 454.284 75.0374 455.607 75.3448 456.563L79.9985 447.356C79.5093 446.705 78.8315 446.38 77.9651 446.38C77.0008 446.38 76.2462 446.892 75.7012 447.918C75.1561 448.929 74.8836 450.488 74.8836 452.594ZM77.9651 458.807C78.9433 458.807 79.705 458.302 80.25 457.29C80.795 456.265 81.0675 454.699 81.0675 452.594C81.0675 450.806 80.8928 449.421 80.5435 448.437L75.8898 457.727C76.3929 458.447 77.0847 458.807 77.9651 458.807Z" fill="url(#paint18_linear_175_198)" fill-opacity="0.6"/>
<path d="M79.2228 482.392H82.3043V483.494H74.3176V482.392H77.8812V470.713L74.4853 472.728L73.8984 471.793L78.0909 469.216H79.2228V482.392Z" fill="url(#paint19_linear_175_198)" fill-opacity="0.6"/>
<path d="M77.9651 492.76C79.4604 492.76 80.5924 493.39 81.361 494.651C82.1436 495.898 82.5349 497.713 82.5349 500.096C82.5349 502.479 82.1436 504.301 81.361 505.561C80.5924 506.822 79.4604 507.453 77.9651 507.453C76.4838 507.453 75.3518 506.822 74.5692 505.561C73.7866 504.301 73.3953 502.479 73.3953 500.096C73.3953 497.726 73.7866 495.911 74.5692 494.651C75.3518 493.39 76.4838 492.76 77.9651 492.76ZM74.8836 500.096C74.8836 501.786 75.0374 503.109 75.3448 504.065L79.9985 494.859C79.5093 494.207 78.8315 493.882 77.9651 493.882C77.0008 493.882 76.2462 494.394 75.7012 495.42C75.1561 496.431 74.8836 497.99 74.8836 500.096ZM77.9651 506.31C78.9433 506.31 79.705 505.804 80.25 504.792C80.795 503.767 81.0675 502.202 81.0675 500.096C81.0675 498.308 80.8928 496.923 80.5435 495.939L75.8898 505.229C76.3929 505.949 77.0847 506.31 77.9651 506.31Z" fill="url(#paint20_linear_175_198)" fill-opacity="0.6"/>
<path d="M77.9651 516.511C79.4604 516.511 80.5924 517.141 81.361 518.402C82.1436 519.649 82.5349 521.464 82.5349 523.847C82.5349 526.23 82.1436 528.052 81.361 529.312C80.5924 530.573 79.4604 531.204 77.9651 531.204C76.4838 531.204 75.3518 530.573 74.5692 529.312C73.7866 528.052 73.3953 526.23 73.3953 523.847C73.3953 521.478 73.7866 519.663 74.5692 518.402C75.3518 517.141 76.4838 516.511 77.9651 516.511ZM74.8836 523.847C74.8836 525.537 75.0374 526.86 75.3448 527.816L79.9985 518.61C79.5093 517.958 78.8315 517.633 77.9651 517.633C77.0008 517.633 76.2462 518.145 75.7012 519.171C75.1561 520.182 74.8836 521.741 74.8836 523.847ZM77.9651 530.061C78.9433 530.061 79.705 529.555 80.25 528.543C80.795 527.518 81.0675 525.953 81.0675 523.847C81.0675 522.059 80.8928 520.674 80.5435 519.69L75.8898 528.98C76.3929 529.7 77.0847 530.061 77.9651 530.061Z" fill="url(#paint21_linear_175_198)" fill-opacity="0.6"/>
<path d="M79.2228 553.645H82.3043V554.747H74.3176V553.645H77.8812V541.966L74.4853 543.982L73.8984 543.046L78.0909 540.469H79.2228V553.645Z" fill="url(#paint22_linear_175_198)" fill-opacity="0.6"/>
<path d="M77.9651 564.013C79.4604 564.013 80.5924 564.643 81.361 565.904C82.1436 567.151 82.5349 568.966 82.5349 571.349C82.5349 573.732 82.1436 575.554 81.361 576.815C80.5924 578.075 79.4604 578.706 77.9651 578.706C76.4838 578.706 75.3518 578.075 74.5692 576.815C73.7866 575.554 73.3953 573.732 73.3953 571.349C73.3953 568.98 73.7866 567.165 74.5692 565.904C75.3518 564.643 76.4838 564.013 77.9651 564.013ZM74.8836 571.349C74.8836 573.039 75.0374 574.362 75.3448 575.318L79.9985 566.112C79.5093 565.461 78.8315 565.135 77.9651 565.135C77.0008 565.135 76.2462 565.648 75.7012 566.673C75.1561 567.684 74.8836 569.243 74.8836 571.349ZM77.9651 577.563C78.9433 577.563 79.705 577.057 80.25 576.046C80.795 575.02 81.0675 573.455 81.0675 571.349C81.0675 569.562 80.8928 568.176 80.5435 567.192L75.8898 576.482C76.3929 577.202 77.0847 577.563 77.9651 577.563Z" fill="url(#paint23_linear_175_198)" fill-opacity="0.6"/>
<path d="M79.2228 601.147H82.3043V602.249H74.3176V601.147H77.8812V589.468L74.4853 591.484L73.8984 590.549L78.0909 587.972H79.2228V601.147Z" fill="url(#paint24_linear_175_198)" fill-opacity="0.6"/>
<path d="M79.2228 624.899H82.3043V626H74.3176V624.899H77.8812V613.219L74.4853 615.235L73.8984 614.3L78.0909 611.723H79.2228V624.899Z" fill="url(#paint25_linear_175_198)" fill-opacity="0.6"/>
<path d="M19.5698 350.253C21.0651 350.253 22.1971 350.884 22.9657 352.144C23.7483 353.391 24.1396 355.206 24.1396 357.589C24.1396 359.972 23.7483 361.794 22.9657 363.055C22.1971 364.316 21.0651 364.946 19.5698 364.946C18.0885 364.946 16.9565 364.316 16.1739 363.055C15.3913 361.794 15 359.972 15 357.589C15 355.22 15.3913 353.405 16.1739 352.144C16.9565 350.884 18.0885 350.253 19.5698 350.253ZM16.4883 357.589C16.4883 359.28 16.6421 360.603 16.9495 361.559L21.6032 352.352C21.114 351.701 20.4363 351.375 19.5698 351.375C18.6055 351.375 17.8509 351.888 17.3059 352.913C16.7608 353.925 16.4883 355.483 16.4883 357.589ZM19.5698 363.803C20.5481 363.803 21.3097 363.297 21.8547 362.286C22.3997 361.261 22.6722 359.695 22.6722 357.589C22.6722 355.802 22.4976 354.417 22.1482 353.433L17.4945 362.722C17.9976 363.443 18.6894 363.803 19.5698 363.803Z" fill="url(#paint26_linear_175_198)" fill-opacity="0.6"/>
<path d="M19.5698 374.004C21.0651 374.004 22.1971 374.635 22.9657 375.895C23.7483 377.142 24.1396 378.957 24.1396 381.34C24.1396 383.723 23.7483 385.545 22.9657 386.806C22.1971 388.067 21.0651 388.697 19.5698 388.697C18.0885 388.697 16.9565 388.067 16.1739 386.806C15.3913 385.545 15 383.723 15 381.34C15 378.971 15.3913 377.156 16.1739 375.895C16.9565 374.635 18.0885 374.004 19.5698 374.004ZM16.4883 381.34C16.4883 383.031 16.6421 384.354 16.9495 385.31L21.6032 376.103C21.114 375.452 20.4363 375.126 19.5698 375.126C18.6055 375.126 17.8509 375.639 17.3059 376.664C16.7608 377.676 16.4883 379.234 16.4883 381.34ZM19.5698 387.554C20.5481 387.554 21.3097 387.049 21.8547 386.037C22.3997 385.012 22.6722 383.446 22.6722 381.34C22.6722 379.553 22.4976 378.168 22.1482 377.184L17.4945 386.474C17.9976 387.194 18.6894 387.554 19.5698 387.554Z" fill="url(#paint27_linear_175_198)" fill-opacity="0.6"/>
<path d="M20.8276 411.139H23.909V412.24H15.9223V411.139H19.486V399.459L16.09 401.475L15.5031 400.54L19.6956 397.963H20.8276V411.139Z" fill="url(#paint28_linear_175_198)" fill-opacity="0.6"/>
<path d="M19.5698 421.506C21.0651 421.506 22.1971 422.137 22.9657 423.398C23.7483 424.644 24.1396 426.459 24.1396 428.842C24.1396 431.225 23.7483 433.047 22.9657 434.308C22.1971 435.569 21.0651 436.199 19.5698 436.199C18.0885 436.199 16.9565 435.569 16.1739 434.308C15.3913 433.047 15 431.225 15 428.842C15 426.473 15.3913 424.658 16.1739 423.398C16.9565 422.137 18.0885 421.506 19.5698 421.506ZM16.4883 428.842C16.4883 430.533 16.6421 431.856 16.9495 432.812L21.6032 423.605C21.114 422.954 20.4363 422.629 19.5698 422.629C18.6055 422.629 17.8509 423.141 17.3059 424.166C16.7608 425.178 16.4883 426.737 16.4883 428.842ZM19.5698 435.056C20.5481 435.056 21.3097 434.551 21.8547 433.539C22.3997 432.514 22.6722 430.948 22.6722 428.842C22.6722 427.055 22.4976 425.67 22.1482 424.686L17.4945 433.976C17.9976 434.696 18.6894 435.056 19.5698 435.056Z" fill="url(#paint29_linear_175_198)" fill-opacity="0.6"/>
<path d="M20.8276 458.641H23.909V459.743H15.9223V458.641H19.486V446.962L16.09 448.977L15.5031 448.042L19.6956 445.465H20.8276V458.641Z" fill="url(#paint30_linear_175_198)" fill-opacity="0.6"/>
<path d="M20.8276 482.392H23.909V483.494H15.9223V482.392H19.486V470.713L16.09 472.728L15.5031 471.793L19.6956 469.216H20.8276V482.392Z" fill="url(#paint31_linear_175_198)" fill-opacity="0.6"/>
<path d="M59.7577 316.135H62.8392V317.236H54.8525V316.135H58.4162V304.455L55.0202 306.471L54.4333 305.536L58.6258 302.959H59.7577V316.135Z" fill="url(#paint32_linear_175_198)" fill-opacity="0.6"/>
<path d="M58.5 326.502C59.9953 326.502 61.1273 327.133 61.8959 328.393C62.6785 329.64 63.0698 331.455 63.0698 333.838C63.0698 336.221 62.6785 338.043 61.8959 339.304C61.1273 340.565 59.9953 341.195 58.5 341.195C57.0187 341.195 55.8867 340.565 55.1041 339.304C54.3215 338.043 53.9302 336.221 53.9302 333.838C53.9302 331.469 54.3215 329.654 55.1041 328.393C55.8867 327.133 57.0187 326.502 58.5 326.502ZM55.4185 333.838C55.4185 335.529 55.5723 336.852 55.8797 337.808L60.5334 328.601C60.0442 327.95 59.3664 327.624 58.5 327.624C57.5357 327.624 56.7811 328.137 56.2361 329.162C55.691 330.174 55.4185 331.732 55.4185 333.838ZM58.5 340.052C59.4782 340.052 60.2399 339.546 60.7849 338.535C61.3299 337.51 61.6024 335.944 61.6024 333.838C61.6024 332.051 61.4277 330.665 61.0784 329.682L56.4247 338.971C56.9278 339.692 57.6196 340.052 58.5 340.052Z" fill="url(#paint33_linear_175_198)" fill-opacity="0.6"/>
<path d="M59.7577 363.637H62.8392V364.738H54.8525V363.637H58.4162V351.957L55.0202 353.973L54.4333 353.038L58.6258 350.461H59.7577V363.637Z" fill="url(#paint34_linear_175_198)" fill-opacity="0.6"/>
<path d="M59.7577 387.388H62.8392V388.489H54.8525V387.388H58.4162V375.708L55.0202 377.724L54.4333 376.789L58.6258 374.212H59.7577V387.388Z" fill="url(#paint35_linear_175_198)" fill-opacity="0.6"/>
<path d="M58.5 397.755C59.9953 397.755 61.1273 398.386 61.8959 399.646C62.6785 400.893 63.0698 402.708 63.0698 405.091C63.0698 407.474 62.6785 409.296 61.8959 410.557C61.1273 411.818 59.9953 412.448 58.5 412.448C57.0187 412.448 55.8867 411.818 55.1041 410.557C54.3215 409.296 53.9302 407.474 53.9302 405.091C53.9302 402.722 54.3215 400.907 55.1041 399.646C55.8867 398.386 57.0187 397.755 58.5 397.755ZM55.4185 405.091C55.4185 406.782 55.5723 408.105 55.8797 409.061L60.5334 399.854C60.0442 399.203 59.3664 398.878 58.5 398.878C57.5357 398.878 56.7811 399.39 56.2361 400.415C55.691 401.427 55.4185 402.985 55.4185 405.091ZM58.5 411.305C59.4782 411.305 60.2399 410.8 60.7849 409.788C61.3299 408.763 61.6024 407.197 61.6024 405.091C61.6024 403.304 61.4277 401.919 61.0784 400.935L56.4247 410.225C56.9278 410.945 57.6196 411.305 58.5 411.305Z" fill="url(#paint36_linear_175_198)" fill-opacity="0.6"/>
<path d="M59.7577 434.89H62.8392V435.992H54.8525V434.89H58.4162V423.21L55.0202 425.226L54.4333 424.291L58.6258 421.714H59.7577V434.89Z" fill="url(#paint37_linear_175_198)" fill-opacity="0.6"/>
<path d="M59.7577 458.641H62.8392V459.743H54.8525V458.641H58.4162V446.962L55.0202 448.977L54.4333 448.042L58.6258 445.465H59.7577V458.641Z" fill="url(#paint38_linear_175_198)" fill-opacity="0.6"/>
<path d="M58.5 469.008C59.9953 469.008 61.1273 469.639 61.8959 470.9C62.6785 472.147 63.0698 473.962 63.0698 476.345C63.0698 478.728 62.6785 480.549 61.8959 481.81C61.1273 483.071 59.9953 483.701 58.5 483.701C57.0187 483.701 55.8867 483.071 55.1041 481.81C54.3215 480.549 53.9302 478.728 53.9302 476.345C53.9302 473.975 54.3215 472.16 55.1041 470.9C55.8867 469.639 57.0187 469.008 58.5 469.008ZM55.4185 476.345C55.4185 478.035 55.5723 479.358 55.8797 480.314L60.5334 471.107C60.0442 470.456 59.3664 470.131 58.5 470.131C57.5357 470.131 56.7811 470.643 56.2361 471.669C55.691 472.68 55.4185 474.239 55.4185 476.345ZM58.5 482.558C59.4782 482.558 60.2399 482.053 60.7849 481.041C61.3299 480.016 61.6024 478.451 61.6024 476.345C61.6024 474.557 61.4277 473.172 61.0784 472.188L56.4247 481.478C56.9278 482.198 57.6196 482.558 58.5 482.558Z" fill="url(#paint39_linear_175_198)" fill-opacity="0.6"/>
<path d="M59.7577 506.143H62.8392V507.245H54.8525V506.143H58.4162V494.464L55.0202 496.48L54.4333 495.544L58.6258 492.967H59.7577V506.143Z" fill="url(#paint40_linear_175_198)" fill-opacity="0.6"/>
<path d="M58.5 516.511C59.9953 516.511 61.1273 517.141 61.8959 518.402C62.6785 519.649 63.0698 521.464 63.0698 523.847C63.0698 526.23 62.6785 528.052 61.8959 529.312C61.1273 530.573 59.9953 531.204 58.5 531.204C57.0187 531.204 55.8867 530.573 55.1041 529.312C54.3215 528.052 53.9302 526.23 53.9302 523.847C53.9302 521.478 54.3215 519.663 55.1041 518.402C55.8867 517.141 57.0187 516.511 58.5 516.511ZM55.4185 523.847C55.4185 525.537 55.5723 526.86 55.8797 527.816L60.5334 518.61C60.0442 517.958 59.3664 517.633 58.5 517.633C57.5357 517.633 56.7811 518.145 56.2361 519.171C55.691 520.182 55.4185 521.741 55.4185 523.847ZM58.5 530.061C59.4782 530.061 60.2399 529.555 60.7849 528.543C61.3299 527.518 61.6024 525.953 61.6024 523.847C61.6024 522.059 61.4277 520.674 61.0784 519.69L56.4247 528.98C56.9278 529.7 57.6196 530.061 58.5 530.061Z" fill="url(#paint41_linear_175_198)" fill-opacity="0.6"/>
<path d="M97.4302 302.751C98.9255 302.751 100.057 303.381 100.826 304.642C101.609 305.889 102 307.704 102 310.087C102 312.47 101.609 314.292 100.826 315.553C100.057 316.814 98.9255 317.444 97.4302 317.444C95.9489 317.444 94.8169 316.814 94.0343 315.553C93.2517 314.292 92.8604 312.47 92.8604 310.087C92.8604 307.718 93.2517 305.903 94.0343 304.642C94.8169 303.381 95.9489 302.751 97.4302 302.751ZM94.3487 310.087C94.3487 311.777 94.5024 313.101 94.8099 314.057L99.4636 304.85C98.9744 304.199 98.2966 303.873 97.4302 303.873C96.4659 303.873 95.7113 304.386 95.1663 305.411C94.6212 306.423 94.3487 307.981 94.3487 310.087ZM97.4302 316.301C98.4084 316.301 99.1701 315.795 99.7151 314.784C100.26 313.759 100.533 312.193 100.533 310.087C100.533 308.3 100.358 306.914 100.009 305.931L95.3549 315.22C95.858 315.941 96.5498 316.301 97.4302 316.301Z" fill="url(#paint42_linear_175_198)" fill-opacity="0.6"/>
<path d="M98.6879 339.886H101.769V340.987H93.7827V339.886H97.3463V328.206L93.9504 330.222L93.3635 329.287L97.556 326.71H98.6879V339.886Z" fill="url(#paint43_linear_175_198)" fill-opacity="0.6"/>
<path d="M98.6879 363.637H101.769V364.738H93.7827V363.637H97.3463V351.957L93.9504 353.973L93.3635 353.038L97.556 350.461H98.6879V363.637Z" fill="url(#paint44_linear_175_198)" fill-opacity="0.6"/>
<path d="M97.4302 374.004C98.9255 374.004 100.057 374.635 100.826 375.895C101.609 377.142 102 378.957 102 381.34C102 383.723 101.609 385.545 100.826 386.806C100.057 388.067 98.9255 388.697 97.4302 388.697C95.9489 388.697 94.8169 388.067 94.0343 386.806C93.2517 385.545 92.8604 383.723 92.8604 381.34C92.8604 378.971 93.2517 377.156 94.0343 375.895C94.8169 374.635 95.9489 374.004 97.4302 374.004ZM94.3487 381.34C94.3487 383.031 94.5024 384.354 94.8099 385.31L99.4636 376.103C98.9744 375.452 98.2966 375.126 97.4302 375.126C96.4659 375.126 95.7113 375.639 95.1663 376.664C94.6212 377.676 94.3487 379.234 94.3487 381.34ZM97.4302 387.554C98.4084 387.554 99.1701 387.049 99.7151 386.037C100.26 385.012 100.533 383.446 100.533 381.34C100.533 379.553 100.358 378.168 100.009 377.184L95.3549 386.474C95.858 387.194 96.5498 387.554 97.4302 387.554Z" fill="url(#paint45_linear_175_198)" fill-opacity="0.6"/>
<path d="M97.4302 397.755C98.9255 397.755 100.057 398.386 100.826 399.646C101.609 400.893 102 402.708 102 405.091C102 407.474 101.609 409.296 100.826 410.557C100.057 411.818 98.9255 412.448 97.4302 412.448C95.9489 412.448 94.8169 411.818 94.0343 410.557C93.2517 409.296 92.8604 407.474 92.8604 405.091C92.8604 402.722 93.2517 400.907 94.0343 399.646C94.8169 398.386 95.9489 397.755 97.4302 397.755ZM94.3487 405.091C94.3487 406.782 94.5024 408.105 94.8099 409.061L99.4636 399.854C98.9744 399.203 98.2966 398.878 97.4302 398.878C96.4659 398.878 95.7113 399.39 95.1663 400.415C94.6212 401.427 94.3487 402.985 94.3487 405.091ZM97.4302 411.305C98.4084 411.305 99.1701 410.8 99.7151 409.788C100.26 408.763 100.533 407.197 100.533 405.091C100.533 403.304 100.358 401.919 100.009 400.935L95.3549 410.225C95.858 410.945 96.5498 411.305 97.4302 411.305Z" fill="url(#paint46_linear_175_198)" fill-opacity="0.6"/>
<g opacity="0.6">
<path d="M925.93 -21C927.356 -21 928.436 -20.395 929.17 -19.1851C929.916 -17.9885 930.29 -16.2468 930.29 -13.9599C930.29 -11.673 929.916 -9.9246 929.17 -8.71468C928.436 -7.50476 927.356 -6.8998 925.93 -6.8998C924.517 -6.8998 923.437 -7.50476 922.69 -8.71468C921.943 -9.9246 921.57 -11.673 921.57 -13.9599C921.57 -16.2335 921.943 -17.9752 922.69 -19.1851C923.437 -20.395 924.517 -21 925.93 -21ZM922.99 -13.9599C922.99 -12.3378 923.137 -11.068 923.43 -10.1506L927.87 -18.9857C927.403 -19.6106 926.756 -19.923 925.93 -19.923C925.01 -19.923 924.29 -19.4311 923.77 -18.4472C923.25 -17.4766 922.99 -15.9808 922.99 -13.9599ZM925.93 -7.99671C926.863 -7.99671 927.59 -8.482 928.11 -9.4526C928.63 -10.4365 928.89 -11.9389 928.89 -13.9599C928.89 -15.675 928.723 -17.0046 928.39 -17.9486L923.95 -9.03378C924.43 -8.3424 925.09 -7.99671 925.93 -7.99671Z" fill="url(#paint47_linear_175_198)"/>
<path d="M927.13 14.6365H930.07V15.6936H922.45V14.6365H925.85V3.42819L922.61 5.36273L922.05 4.46526L926.05 1.99224H927.13V14.6365Z" fill="url(#paint48_linear_175_198)"/>
<path d="M925.93 24.5856C927.356 24.5856 928.436 25.1906 929.17 26.4005C929.916 27.5971 930.29 29.3389 930.29 31.6257C930.29 33.9126 929.916 35.661 929.17 36.8709C928.436 38.0808 927.356 38.6858 925.93 38.6858C924.517 38.6858 923.437 38.0808 922.69 36.8709C921.943 35.661 921.57 33.9126 921.57 31.6257C921.57 29.3521 921.943 27.6104 922.69 26.4005C923.437 25.1906 924.517 24.5856 925.93 24.5856ZM922.99 31.6257C922.99 33.2478 923.137 34.5176 923.43 35.435L927.87 26.5999C927.403 25.975 926.756 25.6626 925.93 25.6626C925.01 25.6626 924.29 26.1545 923.77 27.1384C923.25 28.109 922.99 29.6048 922.99 31.6257ZM925.93 37.5889C926.863 37.5889 927.59 37.1036 928.11 36.133C928.63 35.1491 928.89 33.6467 928.89 31.6257C928.89 29.9106 928.723 28.581 928.39 27.637L923.95 36.5518C924.43 37.2432 925.09 37.5889 925.93 37.5889Z" fill="url(#paint49_linear_175_198)"/>
<path d="M927.13 60.2221H930.07V61.2792H922.45V60.2221H925.85V49.0138L922.61 50.9483L922.05 50.0509L926.05 47.5778H927.13V60.2221Z" fill="url(#paint50_linear_175_198)"/>
<path d="M927.13 83.015H930.07V84.072H922.45V83.015H925.85V71.8066L922.61 73.7411L922.05 72.8437L926.05 70.3706H927.13V83.015Z" fill="url(#paint51_linear_175_198)"/>
<path d="M925.93 92.964C927.356 92.964 928.436 93.569 929.17 94.7789C929.916 95.9755 930.29 97.7173 930.29 100.004C930.29 102.291 929.916 104.039 929.17 105.249C928.436 106.459 927.356 107.064 925.93 107.064C924.517 107.064 923.437 106.459 922.69 105.249C921.943 104.039 921.57 102.291 921.57 100.004C921.57 97.7306 921.943 95.9888 922.69 94.7789C923.437 93.569 924.517 92.964 925.93 92.964ZM922.99 100.004C922.99 101.626 923.137 102.896 923.43 103.813L927.87 94.9783C927.403 94.3534 926.756 94.041 925.93 94.041C925.01 94.041 924.29 94.5329 923.77 95.5168C923.25 96.4874 922.99 97.9832 922.99 100.004ZM925.93 105.967C926.863 105.967 927.59 105.482 928.11 104.511C928.63 103.528 928.89 102.025 928.89 100.004C928.89 98.289 928.723 96.9594 928.39 96.0154L923.95 104.93C924.43 105.622 925.09 105.967 925.93 105.967Z" fill="url(#paint52_linear_175_198)"/>
<path d="M927.13 128.601H930.07V129.658H922.45V128.601H925.85V117.392L922.61 119.327L922.05 118.429L926.05 115.956H927.13V128.601Z" fill="url(#paint53_linear_175_198)"/>
<path d="M925.93 138.55C927.356 138.55 928.436 139.155 929.17 140.365C929.916 141.561 930.29 143.303 930.29 145.59C930.29 147.877 929.916 149.625 929.17 150.835C928.436 152.045 927.356 152.65 925.93 152.65C924.517 152.65 923.437 152.045 922.69 150.835C921.943 149.625 921.57 147.877 921.57 145.59C921.57 143.316 921.943 141.574 922.69 140.365C923.437 139.155 924.517 138.55 925.93 138.55ZM922.99 145.59C922.99 147.212 923.137 148.482 923.43 149.399L927.87 140.564C927.403 139.939 926.756 139.627 925.93 139.627C925.01 139.627 924.29 140.119 923.77 141.102C923.25 142.073 922.99 143.569 922.99 145.59ZM925.93 151.553C926.863 151.553 927.59 151.068 928.11 150.097C928.63 149.113 928.89 147.611 928.89 145.59C928.89 143.875 928.723 142.545 928.39 141.601L923.95 150.516C924.43 151.207 925.09 151.553 925.93 151.553Z" fill="url(#paint54_linear_175_198)"/>
<path d="M925.93 161.342C927.356 161.342 928.436 161.947 929.17 163.157C929.916 164.354 930.29 166.096 930.29 168.383C930.29 170.669 929.916 172.418 929.17 173.628C928.436 174.838 927.356 175.443 925.93 175.443C924.517 175.443 923.437 174.838 922.69 173.628C921.943 172.418 921.57 170.669 921.57 168.383C921.57 166.109 921.943 164.367 922.69 163.157C923.437 161.947 924.517 161.342 925.93 161.342ZM922.99 168.383C922.99 170.005 923.137 171.274 923.43 172.192L927.87 163.357C927.403 162.732 926.756 162.419 925.93 162.419C925.01 162.419 924.29 162.911 923.77 163.895C923.25 164.866 922.99 166.362 922.99 168.383ZM925.93 174.346C926.863 174.346 927.59 173.86 928.11 172.89C928.63 171.906 928.89 170.404 928.89 168.383C928.89 166.667 928.723 165.338 928.39 164.394L923.95 173.309C924.43 174 925.09 174.346 925.93 174.346Z" fill="url(#paint55_linear_175_198)"/>
<path d="M927.13 196.979H930.07V198.036H922.45V196.979H925.85V185.771L922.61 187.705L922.05 186.808L926.05 184.335H927.13V196.979Z" fill="url(#paint56_linear_175_198)"/>
<path d="M925.93 206.928C927.356 206.928 928.436 207.533 929.17 208.743C929.916 209.94 930.29 211.681 930.29 213.968C930.29 216.255 929.916 218.003 929.17 219.213C928.436 220.423 927.356 221.028 925.93 221.028C924.517 221.028 923.437 220.423 922.69 219.213C921.943 218.003 921.57 216.255 921.57 213.968C921.57 211.695 921.943 209.953 922.69 208.743C923.437 207.533 924.517 206.928 925.93 206.928ZM922.99 213.968C922.99 215.59 923.137 216.86 923.43 217.777L927.87 208.942C927.403 208.317 926.756 208.005 925.93 208.005C925.01 208.005 924.29 208.497 923.77 209.481C923.25 210.451 922.99 211.947 922.99 213.968ZM925.93 219.931C926.863 219.931 927.59 219.446 928.11 218.475C928.63 217.492 928.89 215.989 928.89 213.968C928.89 212.253 928.723 210.923 928.39 209.979L923.95 218.894C924.43 219.586 925.09 219.931 925.93 219.931Z" fill="url(#paint57_linear_175_198)"/>
<path d="M927.13 242.565H930.07V243.622H922.45V242.565H925.85V231.356L922.61 233.291L922.05 232.393L926.05 229.92H927.13V242.565Z" fill="url(#paint58_linear_175_198)"/>
<path d="M927.13 265.357H930.07V266.414H922.45V265.357H925.85V254.149L922.61 256.084L922.05 255.186L926.05 252.713H927.13V265.357Z" fill="url(#paint59_linear_175_198)"/>
<path d="M963.07 24.5856C964.497 24.5856 965.577 25.1906 966.31 26.4005C967.057 27.5971 967.43 29.3389 967.43 31.6257C967.43 33.9126 967.057 35.661 966.31 36.8709C965.577 38.0808 964.497 38.6858 963.07 38.6858C961.657 38.6858 960.577 38.0808 959.83 36.8709C959.084 35.661 958.71 33.9126 958.71 31.6257C958.71 29.3521 959.084 27.6104 959.83 26.4005C960.577 25.1906 961.657 24.5856 963.07 24.5856ZM960.13 31.6257C960.13 33.2478 960.277 34.5176 960.57 35.435L965.01 26.5999C964.543 25.975 963.897 25.6626 963.07 25.6626C962.15 25.6626 961.43 26.1545 960.91 27.1384C960.39 28.109 960.13 29.6048 960.13 31.6257ZM963.07 37.5889C964.003 37.5889 964.73 37.1036 965.25 36.133C965.77 35.1491 966.03 33.6467 966.03 31.6257C966.03 29.9106 965.863 28.581 965.53 27.637L961.09 36.5518C961.57 37.2432 962.23 37.5889 963.07 37.5889Z" fill="url(#paint60_linear_175_198)"/>
<path d="M964.27 60.2221H967.21V61.2792H959.59V60.2221H962.99V49.0138L959.75 50.9483L959.19 50.0509L963.19 47.5778H964.27V60.2221Z" fill="url(#paint61_linear_175_198)"/>
<path d="M963.07 70.1712C964.497 70.1712 965.577 70.7762 966.31 71.9861C967.057 73.1827 967.43 74.9245 967.43 77.2113C967.43 79.4982 967.057 81.2466 966.31 82.4565C965.577 83.6665 964.497 84.2714 963.07 84.2714C961.657 84.2714 960.577 83.6665 959.83 82.4565C959.084 81.2466 958.71 79.4982 958.71 77.2113C958.71 74.9378 959.084 73.196 959.83 71.9861C960.577 70.7762 961.657 70.1712 963.07 70.1712ZM960.13 77.2113C960.13 78.8334 960.277 80.1032 960.57 81.0206L965.01 72.1855C964.543 71.5606 963.897 71.2482 963.07 71.2482C962.15 71.2482 961.43 71.7401 960.91 72.724C960.39 73.6946 960.13 75.1904 960.13 77.2113ZM963.07 83.1745C964.003 83.1745 964.73 82.6892 965.25 81.7186C965.77 80.7347 966.03 79.2323 966.03 77.2113C966.03 75.4962 965.863 74.1666 965.53 73.2226L961.09 82.1374C961.57 82.8288 962.23 83.1745 963.07 83.1745Z" fill="url(#paint62_linear_175_198)"/>
<path d="M963.07 92.964C964.497 92.964 965.577 93.569 966.31 94.7789C967.057 95.9755 967.43 97.7173 967.43 100.004C967.43 102.291 967.057 104.039 966.31 105.249C965.577 106.459 964.497 107.064 963.07 107.064C961.657 107.064 960.577 106.459 959.83 105.249C959.084 104.039 958.71 102.291 958.71 100.004C958.71 97.7306 959.084 95.9888 959.83 94.7789C960.577 93.569 961.657 92.964 963.07 92.964ZM960.13 100.004C960.13 101.626 960.277 102.896 960.57 103.813L965.01 94.9783C964.543 94.3534 963.897 94.041 963.07 94.041C962.15 94.041 961.43 94.5329 960.91 95.5168C960.39 96.4874 960.13 97.9832 960.13 100.004ZM963.07 105.967C964.003 105.967 964.73 105.482 965.25 104.511C965.77 103.528 966.03 102.025 966.03 100.004C966.03 98.289 965.863 96.9594 965.53 96.0154L961.09 104.93C961.57 105.622 962.23 105.967 963.07 105.967Z" fill="url(#paint63_linear_175_198)"/>
<path d="M964.27 128.601H967.21V129.658H959.59V128.601H962.99V117.392L959.75 119.327L959.19 118.429L963.19 115.956H964.27V128.601Z" fill="url(#paint64_linear_175_198)"/>
<path d="M963.07 138.55C964.497 138.55 965.577 139.155 966.31 140.365C967.057 141.561 967.43 143.303 967.43 145.59C967.43 147.877 967.057 149.625 966.31 150.835C965.577 152.045 964.497 152.65 963.07 152.65C961.657 152.65 960.577 152.045 959.83 150.835C959.084 149.625 958.71 147.877 958.71 145.59C958.71 143.316 959.084 141.574 959.83 140.365C960.577 139.155 961.657 138.55 963.07 138.55ZM960.13 145.59C960.13 147.212 960.277 148.482 960.57 149.399L965.01 140.564C964.543 139.939 963.897 139.627 963.07 139.627C962.15 139.627 961.43 140.119 960.91 141.102C960.39 142.073 960.13 143.569 960.13 145.59ZM963.07 151.553C964.003 151.553 964.73 151.068 965.25 150.097C965.77 149.113 966.03 147.611 966.03 145.59C966.03 143.875 965.863 142.545 965.53 141.601L961.09 150.516C961.57 151.207 962.23 151.553 963.07 151.553Z" fill="url(#paint65_linear_175_198)"/>
<path d="M964.27 174.186H967.21V175.243H959.59V174.186H962.99V162.978L959.75 164.912L959.19 164.015L963.19 161.542H964.27V174.186Z" fill="url(#paint66_linear_175_198)"/>
<path d="M963.07 184.135C964.497 184.135 965.577 184.74 966.31 185.95C967.057 187.147 967.43 188.888 967.43 191.175C967.43 193.462 967.057 195.211 966.31 196.421C965.577 197.63 964.497 198.235 963.07 198.235C961.657 198.235 960.577 197.63 959.83 196.421C959.084 195.211 958.71 193.462 958.71 191.175C958.71 188.902 959.084 187.16 959.83 185.95C960.577 184.74 961.657 184.135 963.07 184.135ZM960.13 191.175C960.13 192.797 960.277 194.067 960.57 194.985L965.01 186.15C964.543 185.525 963.897 185.212 963.07 185.212C962.15 185.212 961.43 185.704 960.91 186.688C960.39 187.659 960.13 189.154 960.13 191.175ZM963.07 197.139C964.003 197.139 964.73 196.653 965.25 195.683C965.77 194.699 966.03 193.196 966.03 191.175C966.03 189.46 965.863 188.131 965.53 187.187L961.09 196.101C961.57 196.793 962.23 197.139 963.07 197.139Z" fill="url(#paint67_linear_175_198)"/>
<path d="M963.07 206.928C964.497 206.928 965.577 207.533 966.31 208.743C967.057 209.94 967.43 211.681 967.43 213.968C967.43 216.255 967.057 218.003 966.31 219.213C965.577 220.423 964.497 221.028 963.07 221.028C961.657 221.028 960.577 220.423 959.83 219.213C959.084 218.003 958.71 216.255 958.71 213.968C958.71 211.695 959.084 209.953 959.83 208.743C960.577 207.533 961.657 206.928 963.07 206.928ZM960.13 213.968C960.13 215.59 960.277 216.86 960.57 217.777L965.01 208.942C964.543 208.317 963.897 208.005 963.07 208.005C962.15 208.005 961.43 208.497 960.91 209.481C960.39 210.451 960.13 211.947 960.13 213.968ZM963.07 219.931C964.003 219.931 964.73 219.446 965.25 218.475C965.77 217.492 966.03 215.989 966.03 213.968C966.03 212.253 965.863 210.923 965.53 209.979L961.09 218.894C961.57 219.586 962.23 219.931 963.07 219.931Z" fill="url(#paint68_linear_175_198)"/>
<path d="M964.27 242.565H967.21V243.622H959.59V242.565H962.99V231.356L959.75 233.291L959.19 232.393L963.19 229.92H964.27V242.565Z" fill="url(#paint69_linear_175_198)"/>
<path d="M963.07 252.514C964.497 252.514 965.577 253.119 966.31 254.329C967.057 255.525 967.43 257.267 967.43 259.554C967.43 261.841 967.057 263.589 966.31 264.799C965.577 266.009 964.497 266.614 963.07 266.614C961.657 266.614 960.577 266.009 959.83 264.799C959.084 263.589 958.71 261.841 958.71 259.554C958.71 257.28 959.084 255.538 959.83 254.329C960.577 253.119 961.657 252.514 963.07 252.514ZM960.13 259.554C960.13 261.176 960.277 262.446 960.57 263.363L965.01 254.528C964.543 253.903 963.897 253.591 963.07 253.591C962.15 253.591 961.43 254.083 960.91 255.066C960.39 256.037 960.13 257.533 960.13 259.554ZM963.07 265.517C964.003 265.517 964.73 265.032 965.25 264.061C965.77 263.077 966.03 261.575 966.03 259.554C966.03 257.839 965.863 256.509 965.53 255.565L961.09 264.48C961.57 265.171 962.23 265.517 963.07 265.517Z" fill="url(#paint70_linear_175_198)"/>
<path d="M964.27 288.15H967.21V289.207H959.59V288.15H962.99V276.942L959.75 278.876L959.19 277.979L963.19 275.506H964.27V288.15Z" fill="url(#paint71_linear_175_198)"/>
<path d="M964.27 310.943H967.21V312H959.59V310.943H962.99V299.735L959.75 301.669L959.19 300.772L963.19 298.299H964.27V310.943Z" fill="url(#paint72_linear_175_198)"/>
<path d="M907.36 47.3784C908.786 47.3784 909.866 47.9834 910.599 49.1933C911.346 50.3899 911.719 52.1317 911.719 54.4185C911.719 56.7054 911.346 58.4538 910.599 59.6637C909.866 60.8736 908.786 61.4786 907.36 61.4786C905.946 61.4786 904.867 60.8736 904.12 59.6637C903.373 58.4538 903 56.7054 903 54.4185C903 52.145 903.373 50.4032 904.12 49.1933C904.867 47.9834 905.946 47.3784 907.36 47.3784ZM904.42 54.4185C904.42 56.0406 904.567 57.3104 904.86 58.2278L909.3 49.3927C908.833 48.7678 908.186 48.4554 907.36 48.4554C906.44 48.4554 905.72 48.9473 905.2 49.9312C904.68 50.9018 904.42 52.3976 904.42 54.4185ZM907.36 60.3817C908.293 60.3817 909.02 59.8964 909.54 58.9258C910.06 57.9419 910.319 56.4395 910.319 54.4185C910.319 52.7034 910.153 51.3738 909.82 50.4298L905.38 59.3446C905.86 60.036 906.52 60.3817 907.36 60.3817Z" fill="url(#paint73_linear_175_198)"/>
<path d="M907.36 70.1712C908.786 70.1712 909.866 70.7762 910.599 71.9861C911.346 73.1827 911.719 74.9245 911.719 77.2113C911.719 79.4982 911.346 81.2466 910.599 82.4565C909.866 83.6665 908.786 84.2714 907.36 84.2714C905.946 84.2714 904.867 83.6665 904.12 82.4565C903.373 81.2466 903 79.4982 903 77.2113C903 74.9378 903.373 73.196 904.12 71.9861C904.867 70.7762 905.946 70.1712 907.36 70.1712ZM904.42 77.2113C904.42 78.8334 904.567 80.1032 904.86 81.0206L909.3 72.1855C908.833 71.5606 908.186 71.2482 907.36 71.2482C906.44 71.2482 905.72 71.7401 905.2 72.724C904.68 73.6946 904.42 75.1904 904.42 77.2113ZM907.36 83.1745C908.293 83.1745 909.02 82.6892 909.54 81.7186C910.06 80.7347 910.319 79.2323 910.319 77.2113C910.319 75.4962 910.153 74.1666 909.82 73.2226L905.38 82.1374C905.86 82.8288 906.52 83.1745 907.36 83.1745Z" fill="url(#paint74_linear_175_198)"/>
<path d="M908.56 105.808H911.499V106.865H903.88V105.808H907.28V94.5994L904.04 96.5339L903.48 95.6365L907.48 93.1635H908.56V105.808Z" fill="url(#paint75_linear_175_198)"/>
<path d="M907.36 115.757C908.786 115.757 909.866 116.362 910.599 117.572C911.346 118.768 911.719 120.51 911.719 122.797C911.719 125.084 911.346 126.832 910.599 128.042C909.866 129.252 908.786 129.857 907.36 129.857C905.946 129.857 904.867 129.252 904.12 128.042C903.373 126.832 903 125.084 903 122.797C903 120.523 903.373 118.782 904.12 117.572C904.867 116.362 905.946 115.757 907.36 115.757ZM904.42 122.797C904.42 124.419 904.567 125.689 904.86 126.606L909.3 117.771C908.833 117.146 908.186 116.834 907.36 116.834C906.44 116.834 905.72 117.326 905.2 118.31C904.68 119.28 904.42 120.776 904.42 122.797ZM907.36 128.76C908.293 128.76 909.02 128.275 909.54 127.304C910.06 126.32 910.319 124.818 910.319 122.797C910.319 121.082 910.153 119.752 909.82 118.808L905.38 127.723C905.86 128.414 906.52 128.76 907.36 128.76Z" fill="url(#paint76_linear_175_198)"/>
<path d="M908.56 151.393H911.499V152.45H903.88V151.393H907.28V140.185L904.04 142.12L903.48 141.222L907.48 138.749H908.56V151.393Z" fill="url(#paint77_linear_175_198)"/>
<path d="M908.56 174.186H911.499V175.243H903.88V174.186H907.28V162.978L904.04 164.912L903.48 164.015L907.48 161.542H908.56V174.186Z" fill="url(#paint78_linear_175_198)"/>
<path d="M945.7 14.6365H948.64V15.6936H941.02V14.6365H944.42V3.42819L941.18 5.36273L940.62 4.46526L944.62 1.99224H945.7V14.6365Z" fill="url(#paint79_linear_175_198)"/>
<path d="M944.5 24.5856C945.927 24.5856 947.006 25.1906 947.74 26.4005C948.486 27.5971 948.86 29.3389 948.86 31.6257C948.86 33.9126 948.486 35.661 947.74 36.8709C947.006 38.0808 945.927 38.6858 944.5 38.6858C943.087 38.6858 942.007 38.0808 941.26 36.8709C940.514 35.661 940.14 33.9126 940.14 31.6257C940.14 29.3521 940.514 27.6104 941.26 26.4005C942.007 25.1906 943.087 24.5856 944.5 24.5856ZM941.56 31.6257C941.56 33.2478 941.707 34.5176 942 35.435L946.44 26.5999C945.973 25.975 945.327 25.6626 944.5 25.6626C943.58 25.6626 942.86 26.1545 942.34 27.1384C941.82 28.109 941.56 29.6048 941.56 31.6257ZM944.5 37.5889C945.433 37.5889 946.16 37.1036 946.68 36.133C947.2 35.1491 947.46 33.6467 947.46 31.6257C947.46 29.9106 947.293 28.581 946.96 27.637L942.52 36.5518C943 37.2432 943.66 37.5889 944.5 37.5889Z" fill="url(#paint80_linear_175_198)"/>
<path d="M945.7 60.2221H948.64V61.2792H941.02V60.2221H944.42V49.0138L941.18 50.9483L940.62 50.0509L944.62 47.5778H945.7V60.2221Z" fill="url(#paint81_linear_175_198)"/>
<path d="M945.7 83.015H948.64V84.072H941.02V83.015H944.42V71.8066L941.18 73.7411L940.62 72.8437L944.62 70.3706H945.7V83.015Z" fill="url(#paint82_linear_175_198)"/>
<path d="M944.5 92.964C945.927 92.964 947.006 93.569 947.74 94.7789C948.486 95.9755 948.86 97.7173 948.86 100.004C948.86 102.291 948.486 104.039 947.74 105.249C947.006 106.459 945.927 107.064 944.5 107.064C943.087 107.064 942.007 106.459 941.26 105.249C940.514 104.039 940.14 102.291 940.14 100.004C940.14 97.7306 940.514 95.9888 941.26 94.7789C942.007 93.569 943.087 92.964 944.5 92.964ZM941.56 100.004C941.56 101.626 941.707 102.896 942 103.813L946.44 94.9783C945.973 94.3534 945.327 94.041 944.5 94.041C943.58 94.041 942.86 94.5329 942.34 95.5168C941.82 96.4874 941.56 97.9832 941.56 100.004ZM944.5 105.967C945.433 105.967 946.16 105.482 946.68 104.511C947.2 103.528 947.46 102.025 947.46 100.004C947.46 98.289 947.293 96.9594 946.96 96.0154L942.52 104.93C943 105.622 943.66 105.967 944.5 105.967Z" fill="url(#paint83_linear_175_198)"/>
<path d="M945.7 128.601H948.64V129.658H941.02V128.601H944.42V117.392L941.18 119.327L940.62 118.429L944.62 115.956H945.7V128.601Z" fill="url(#paint84_linear_175_198)"/>
<path d="M945.7 151.393H948.64V152.45H941.02V151.393H944.42V140.185L941.18 142.12L940.62 141.222L944.62 138.749H945.7V151.393Z" fill="url(#paint85_linear_175_198)"/>
<path d="M944.5 161.342C945.927 161.342 947.006 161.947 947.74 163.157C948.486 164.354 948.86 166.096 948.86 168.383C948.86 170.669 948.486 172.418 947.74 173.628C947.006 174.838 945.927 175.443 944.5 175.443C943.087 175.443 942.007 174.838 941.26 173.628C940.514 172.418 940.14 170.669 940.14 168.383C940.14 166.109 940.514 164.367 941.26 163.157C942.007 161.947 943.087 161.342 944.5 161.342ZM941.56 168.383C941.56 170.005 941.707 171.274 942 172.192L946.44 163.357C945.973 162.732 945.327 162.419 944.5 162.419C943.58 162.419 942.86 162.911 942.34 163.895C941.82 164.866 941.56 166.362 941.56 168.383ZM944.5 174.346C945.433 174.346 946.16 173.86 946.68 172.89C947.2 171.906 947.46 170.404 947.46 168.383C947.46 166.667 947.293 165.338 946.96 164.394L942.52 173.309C943 174 943.66 174.346 944.5 174.346Z" fill="url(#paint86_linear_175_198)"/>
<path d="M945.7 196.979H948.64V198.036H941.02V196.979H944.42V185.771L941.18 187.705L940.62 186.808L944.62 184.335H945.7V196.979Z" fill="url(#paint87_linear_175_198)"/>
<path d="M944.5 206.928C945.927 206.928 947.006 207.533 947.74 208.743C948.486 209.94 948.86 211.681 948.86 213.968C948.86 216.255 948.486 218.003 947.74 219.213C947.006 220.423 945.927 221.028 944.5 221.028C943.087 221.028 942.007 220.423 941.26 219.213C940.514 218.003 940.14 216.255 940.14 213.968C940.14 211.695 940.514 209.953 941.26 208.743C942.007 207.533 943.087 206.928 944.5 206.928ZM941.56 213.968C941.56 215.59 941.707 216.86 942 217.777L946.44 208.942C945.973 208.317 945.327 208.005 944.5 208.005C943.58 208.005 942.86 208.497 942.34 209.481C941.82 210.451 941.56 211.947 941.56 213.968ZM944.5 219.931C945.433 219.931 946.16 219.446 946.68 218.475C947.2 217.492 947.46 215.989 947.46 213.968C947.46 212.253 947.293 210.923 946.96 209.979L942.52 218.894C943 219.586 943.66 219.931 944.5 219.931Z" fill="url(#paint88_linear_175_198)"/>
<path d="M981.64 1.7928C983.067 1.7928 984.147 2.39776 984.88 3.60768C985.627 4.8043 986 6.54605 986 8.83293C986 11.1198 985.627 12.8682 984.88 14.0781C984.147 15.288 983.067 15.893 981.64 15.893C980.227 15.893 979.147 15.288 978.401 14.0781C977.654 12.8682 977.281 11.1198 977.281 8.83293C977.281 6.55935 977.654 4.8176 978.401 3.60768C979.147 2.39776 980.227 1.7928 981.64 1.7928ZM978.701 8.83293C978.701 10.455 978.847 11.7248 979.14 12.6422L983.58 3.80712C983.114 3.18221 982.467 2.86976 981.64 2.86976C980.72 2.86976 980 3.36171 979.48 4.3456C978.96 5.31619 978.701 6.81197 978.701 8.83293ZM981.64 14.7961C982.574 14.7961 983.3 14.3108 983.82 13.3402C984.34 12.3563 984.6 10.8539 984.6 8.83293C984.6 7.11777 984.433 5.78819 984.1 4.84419L979.66 13.759C980.14 14.4504 980.8 14.7961 981.64 14.7961Z" fill="url(#paint89_linear_175_198)"/>
<path d="M982.84 37.4293H985.78V38.4864H978.161V37.4293H981.56V26.221L978.321 28.1555L977.761 27.2581L981.76 24.785H982.84V37.4293Z" fill="url(#paint90_linear_175_198)"/>
<path d="M982.84 60.2221H985.78V61.2792H978.161V60.2221H981.56V49.0138L978.321 50.9483L977.761 50.0509L981.76 47.5778H982.84V60.2221Z" fill="url(#paint91_linear_175_198)"/>
<path d="M981.64 70.1712C983.067 70.1712 984.147 70.7762 984.88 71.9861C985.627 73.1827 986 74.9245 986 77.2113C986 79.4982 985.627 81.2466 984.88 82.4565C984.147 83.6665 983.067 84.2714 981.64 84.2714C980.227 84.2714 979.147 83.6665 978.401 82.4565C977.654 81.2466 977.281 79.4982 977.281 77.2113C977.281 74.9378 977.654 73.196 978.401 71.9861C979.147 70.7762 980.227 70.1712 981.64 70.1712ZM978.701 77.2113C978.701 78.8334 978.847 80.1032 979.14 81.0206L983.58 72.1855C983.114 71.5606 982.467 71.2482 981.64 71.2482C980.72 71.2482 980 71.7401 979.48 72.724C978.96 73.6946 978.701 75.1904 978.701 77.2113ZM981.64 83.1745C982.574 83.1745 983.3 82.6892 983.82 81.7186C984.34 80.7347 984.6 79.2323 984.6 77.2113C984.6 75.4962 984.433 74.1666 984.1 73.2226L979.66 82.1374C980.14 82.8288 980.8 83.1745 981.64 83.1745Z" fill="url(#paint92_linear_175_198)"/>
<path d="M981.64 92.964C983.067 92.964 984.147 93.569 984.88 94.7789C985.627 95.9755 986 97.7173 986 100.004C986 102.291 985.627 104.039 984.88 105.249C984.147 106.459 983.067 107.064 981.64 107.064C980.227 107.064 979.147 106.459 978.401 105.249C977.654 104.039 977.281 102.291 977.281 100.004C977.281 97.7306 977.654 95.9888 978.401 94.7789C979.147 93.569 980.227 92.964 981.64 92.964ZM978.701 100.004C978.701 101.626 978.847 102.896 979.14 103.813L983.58 94.9783C983.114 94.3534 982.467 94.041 981.64 94.041C980.72 94.041 980 94.5329 979.48 95.5168C978.96 96.4874 978.701 97.9832 978.701 100.004ZM981.64 105.967C982.574 105.967 983.3 105.482 983.82 104.511C984.34 103.528 984.6 102.025 984.6 100.004C984.6 98.289 984.433 96.9594 984.1 96.0154L979.66 104.93C980.14 105.622 980.8 105.967 981.64 105.967Z" fill="url(#paint93_linear_175_198)"/>
</g>
<defs>
<filter id="filter0_f_175_198" x="-552.19" y="-707.19" width="2141.38" height="1500.38" filterUnits="userSpaceOnUse" color-interpolation-filters="sRGB">
<feFlood flood-opacity="0" result="BackgroundImageFix"/>
<feBlend mode="normal" in="SourceGraphic" in2="BackgroundImageFix" result="shape"/>
<feGaussianBlur stdDeviation="200.095" result="effect1_foregroundBlur_175_198"/>
</filter>
<linearGradient id="paint0_linear_175_198" x1="58.5" y1="279" x2="58.5" y2="590.381" gradientUnits="userSpaceOnUse">
<stop stop-color="#F7DD43"/>
<stop offset="1" stop-color="#F7DD43" stop-opacity="0"/>
</linearGradient>
<linearGradient id="paint1_linear_175_198" x1="58.5" y1="279" x2="58.5" y2="590.381" gradientUnits="userSpaceOnUse">
<stop stop-color="#F7DD43"/>
<stop offset="1" stop-color="#F7DD43" stop-opacity="0"/>
</linearGradient>
<linearGradient id="paint2_linear_175_198" x1="58.5" y1="279" x2="58.5" y2="590.381" gradientUnits="userSpaceOnUse">
<stop stop-color="#F7DD43"/>
<stop offset="1" stop-color="#F7DD43" stop-opacity="0"/>
</linearGradient>
<linearGradient id="paint3_linear_175_198" x1="58.5" y1="279" x2="58.5" y2="590.381" gradientUnits="userSpaceOnUse">
<stop stop-color="#F7DD43"/>
<stop offset="1" stop-color="#F7DD43" stop-opacity="0"/>
</linearGradient>
<linearGradient id="paint4_linear_175_198" x1="58.5" y1="279" x2="58.5" y2="590.381" gradientUnits="userSpaceOnUse">
<stop stop-color="#F7DD43"/>
<stop offset="1" stop-color="#F7DD43" stop-opacity="0"/>
</linearGradient>
<linearGradient id="paint5_linear_175_198" x1="58.5" y1="279" x2="58.5" y2="590.381" gradientUnits="userSpaceOnUse">
<stop stop-color="#F7DD43"/>
<stop offset="1" stop-color="#F7DD43" stop-opacity="0"/>
</linearGradient>
<linearGradient id="paint6_linear_175_198" x1="58.5" y1="279" x2="58.5" y2="590.381" gradientUnits="userSpaceOnUse">
<stop stop-color="#F7DD43"/>
<stop offset="1" stop-color="#F7DD43" stop-opacity="0"/>
</linearGradient>
<linearGradient id="paint7_linear_175_198" x1="58.5" y1="279" x2="58.5" y2="590.381" gradientUnits="userSpaceOnUse">
<stop stop-color="#F7DD43"/>
<stop offset="1" stop-color="#F7DD43" stop-opacity="0"/>
</linearGradient>
<linearGradient id="paint8_linear_175_198" x1="58.5" y1="279" x2="58.5" y2="590.381" gradientUnits="userSpaceOnUse">
<stop stop-color="#F7DD43"/>
<stop offset="1" stop-color="#F7DD43" stop-opacity="0"/>
</linearGradient>
<linearGradient id="paint9_linear_175_198" x1="58.5" y1="279" x2="58.5" y2="590.381" gradientUnits="userSpaceOnUse">
<stop stop-color="#F7DD43"/>
<stop offset="1" stop-color="#F7DD43" stop-opacity="0"/>
</linearGradient>
<linearGradient id="paint10_linear_175_198" x1="58.5" y1="279" x2="58.5" y2="590.381" gradientUnits="userSpaceOnUse">
<stop stop-color="#F7DD43"/>
<stop offset="1" stop-color="#F7DD43" stop-opacity="0"/>
</linearGradient>
<linearGradient id="paint11_linear_175_198" x1="58.5" y1="279" x2="58.5" y2="590.381" gradientUnits="userSpaceOnUse">
<stop stop-color="#F7DD43"/>
<stop offset="1" stop-color="#F7DD43" stop-opacity="0"/>
</linearGradient>
<linearGradient id="paint12_linear_175_198" x1="58.5" y1="279" x2="58.5" y2="590.381" gradientUnits="userSpaceOnUse">
<stop stop-color="#F7DD43"/>
<stop offset="1" stop-color="#F7DD43" stop-opacity="0"/>
</linearGradient>
<linearGradient id="paint13_linear_175_198" x1="58.5" y1="279" x2="58.5" y2="590.381" gradientUnits="userSpaceOnUse">
<stop stop-color="#F7DD43"/>
<stop offset="1" stop-color="#F7DD43" stop-opacity="0"/>
</linearGradient>
<linearGradient id="paint14_linear_175_198" x1="58.5" y1="279" x2="58.5" y2="590.381" gradientUnits="userSpaceOnUse">
<stop stop-color="#F7DD43"/>
<stop offset="1" stop-color="#F7DD43" stop-opacity="0"/>
</linearGradient>
<linearGradient id="paint15_linear_175_198" x1="58.5" y1="279" x2="58.5" y2="590.381" gradientUnits="userSpaceOnUse">
<stop stop-color="#F7DD43"/>
<stop offset="1" stop-color="#F7DD43" stop-opacity="0"/>
</linearGradient>
<linearGradient id="paint16_linear_175_198" x1="58.5" y1="279" x2="58.5" y2="590.381" gradientUnits="userSpaceOnUse">
<stop stop-color="#F7DD43"/>
<stop offset="1" stop-color="#F7DD43" stop-opacity="0"/>
</linearGradient>
<linearGradient id="paint17_linear_175_198" x1="58.5" y1="279" x2="58.5" y2="590.381" gradientUnits="userSpaceOnUse">
<stop stop-color="#F7DD43"/>
<stop offset="1" stop-color="#F7DD43" stop-opacity="0"/>
</linearGradient>
<linearGradient id="paint18_linear_175_198" x1="58.5" y1="279" x2="58.5" y2="590.381" gradientUnits="userSpaceOnUse">
<stop stop-color="#F7DD43"/>
<stop offset="1" stop-color="#F7DD43" stop-opacity="0"/>
</linearGradient>
<linearGradient id="paint19_linear_175_198" x1="58.5" y1="279" x2="58.5" y2="590.381" gradientUnits="userSpaceOnUse">
<stop stop-color="#F7DD43"/>
<stop offset="1" stop-color="#F7DD43" stop-opacity="0"/>
</linearGradient>
<linearGradient id="paint20_linear_175_198" x1="58.5" y1="279" x2="58.5" y2="590.381" gradientUnits="userSpaceOnUse">
<stop stop-color="#F7DD43"/>
<stop offset="1" stop-color="#F7DD43" stop-opacity="0"/>
</linearGradient>
<linearGradient id="paint21_linear_175_198" x1="58.5" y1="279" x2="58.5" y2="590.381" gradientUnits="userSpaceOnUse">
<stop stop-color="#F7DD43"/>
<stop offset="1" stop-color="#F7DD43" stop-opacity="0"/>
</linearGradient>
<linearGradient id="paint22_linear_175_198" x1="58.5" y1="279" x2="58.5" y2="590.381" gradientUnits="userSpaceOnUse">
<stop stop-color="#F7DD43"/>
<stop offset="1" stop-color="#F7DD43" stop-opacity="0"/>
</linearGradient>
<linearGradient id="paint23_linear_175_198" x1="58.5" y1="279" x2="58.5" y2="590.381" gradientUnits="userSpaceOnUse">
<stop stop-color="#F7DD43"/>
<stop offset="1" stop-color="#F7DD43" stop-opacity="0"/>
</linearGradient>
<linearGradient id="paint24_linear_175_198" x1="58.5" y1="279" x2="58.5" y2="590.381" gradientUnits="userSpaceOnUse">
<stop stop-color="#F7DD43"/>
<stop offset="1" stop-color="#F7DD43" stop-opacity="0"/>
</linearGradient>
<linearGradient id="paint25_linear_175_198" x1="58.5" y1="279" x2="58.5" y2="590.381" gradientUnits="userSpaceOnUse">
<stop stop-color="#F7DD43"/>
<stop offset="1" stop-color="#F7DD43" stop-opacity="0"/>
</linearGradient>
<linearGradient id="paint26_linear_175_198" x1="58.5" y1="279" x2="58.5" y2="590.381" gradientUnits="userSpaceOnUse">
<stop stop-color="#F7DD43"/>
<stop offset="1" stop-color="#F7DD43" stop-opacity="0"/>
</linearGradient>
<linearGradient id="paint27_linear_175_198" x1="58.5" y1="279" x2="58.5" y2="590.381" gradientUnits="userSpaceOnUse">
<stop stop-color="#F7DD43"/>
<stop offset="1" stop-color="#F7DD43" stop-opacity="0"/>
</linearGradient>
<linearGradient id="paint28_linear_175_198" x1="58.5" y1="279" x2="58.5" y2="590.381" gradientUnits="userSpaceOnUse">
<stop stop-color="#F7DD43"/>
<stop offset="1" stop-color="#F7DD43" stop-opacity="0"/>
</linearGradient>
<linearGradient id="paint29_linear_175_198" x1="58.5" y1="279" x2="58.5" y2="590.381" gradientUnits="userSpaceOnUse">
<stop stop-color="#F7DD43"/>
<stop offset="1" stop-color="#F7DD43" stop-opacity="0"/>
</linearGradient>
<linearGradient id="paint30_linear_175_198" x1="58.5" y1="279" x2="58.5" y2="590.381" gradientUnits="userSpaceOnUse">
<stop stop-color="#F7DD43"/>
<stop offset="1" stop-color="#F7DD43" stop-opacity="0"/>
</linearGradient>
<linearGradient id="paint31_linear_175_198" x1="58.5" y1="279" x2="58.5" y2="590.381" gradientUnits="userSpaceOnUse">
<stop stop-color="#F7DD43"/>
<stop offset="1" stop-color="#F7DD43" stop-opacity="0"/>
</linearGradient>
<linearGradient id="paint32_linear_175_198" x1="58.5" y1="279" x2="58.5" y2="590.381" gradientUnits="userSpaceOnUse">
<stop stop-color="#F7DD43"/>
<stop offset="1" stop-color="#F7DD43" stop-opacity="0"/>
</linearGradient>
<linearGradient id="paint33_linear_175_198" x1="58.5" y1="279" x2="58.5" y2="590.381" gradientUnits="userSpaceOnUse">
<stop stop-color="#F7DD43"/>
<stop offset="1" stop-color="#F7DD43" stop-opacity="0"/>
</linearGradient>
<linearGradient id="paint34_linear_175_198" x1="58.5" y1="279" x2="58.5" y2="590.381" gradientUnits="userSpaceOnUse">
<stop stop-color="#F7DD43"/>
<stop offset="1" stop-color="#F7DD43" stop-opacity="0"/>
</linearGradient>
<linearGradient id="paint35_linear_175_198" x1="58.5" y1="279" x2="58.5" y2="590.381" gradientUnits="userSpaceOnUse">
<stop stop-color="#F7DD43"/>
<stop offset="1" stop-color="#F7DD43" stop-opacity="0"/>
</linearGradient>
<linearGradient id="paint36_linear_175_198" x1="58.5" y1="279" x2="58.5" y2="590.381" gradientUnits="userSpaceOnUse">
<stop stop-color="#F7DD43"/>
<stop offset="1" stop-color="#F7DD43" stop-opacity="0"/>
</linearGradient>
<linearGradient id="paint37_linear_175_198" x1="58.5" y1="279" x2="58.5" y2="590.381" gradientUnits="userSpaceOnUse">
<stop stop-color="#F7DD43"/>
<stop offset="1" stop-color="#F7DD43" stop-opacity="0"/>
</linearGradient>
<linearGradient id="paint38_linear_175_198" x1="58.5" y1="279" x2="58.5" y2="590.381" gradientUnits="userSpaceOnUse">
<stop stop-color="#F7DD43"/>
<stop offset="1" stop-color="#F7DD43" stop-opacity="0"/>
</linearGradient>
<linearGradient id="paint39_linear_175_198" x1="58.5" y1="279" x2="58.5" y2="590.381" gradientUnits="userSpaceOnUse">
<stop stop-color="#F7DD43"/>
<stop offset="1" stop-color="#F7DD43" stop-opacity="0"/>
</linearGradient>
<linearGradient id="paint40_linear_175_198" x1="58.5" y1="279" x2="58.5" y2="590.381" gradientUnits="userSpaceOnUse">
<stop stop-color="#F7DD43"/>
<stop offset="1" stop-color="#F7DD43" stop-opacity="0"/>
</linearGradient>
<linearGradient id="paint41_linear_175_198" x1="58.5" y1="279" x2="58.5" y2="590.381" gradientUnits="userSpaceOnUse">
<stop stop-color="#F7DD43"/>
<stop offset="1" stop-color="#F7DD43" stop-opacity="0"/>
</linearGradient>
<linearGradient id="paint42_linear_175_198" x1="58.5" y1="279" x2="58.5" y2="590.381" gradientUnits="userSpaceOnUse">
<stop stop-color="#F7DD43"/>
<stop offset="1" stop-color="#F7DD43" stop-opacity="0"/>
</linearGradient>
<linearGradient id="paint43_linear_175_198" x1="58.5" y1="279" x2="58.5" y2="590.381" gradientUnits="userSpaceOnUse">
<stop stop-color="#F7DD43"/>
<stop offset="1" stop-color="#F7DD43" stop-opacity="0"/>
</linearGradient>
<linearGradient id="paint44_linear_175_198" x1="58.5" y1="279" x2="58.5" y2="590.381" gradientUnits="userSpaceOnUse">
<stop stop-color="#F7DD43"/>
<stop offset="1" stop-color="#F7DD43" stop-opacity="0"/>
</linearGradient>
<linearGradient id="paint45_linear_175_198" x1="58.5" y1="279" x2="58.5" y2="590.381" gradientUnits="userSpaceOnUse">
<stop stop-color="#F7DD43"/>
<stop offset="1" stop-color="#F7DD43" stop-opacity="0"/>
</linearGradient>
<linearGradient id="paint46_linear_175_198" x1="58.5" y1="279" x2="58.5" y2="590.381" gradientUnits="userSpaceOnUse">
<stop stop-color="#F7DD43"/>
<stop offset="1" stop-color="#F7DD43" stop-opacity="0"/>
</linearGradient>
<linearGradient id="paint47_linear_175_198" x1="944.5" y1="-21" x2="944.5" y2="277.818" gradientUnits="userSpaceOnUse">
<stop stop-color="#F7DD43"/>
<stop offset="1" stop-color="#F7DD43" stop-opacity="0"/>
</linearGradient>
<linearGradient id="paint48_linear_175_198" x1="944.5" y1="-21" x2="944.5" y2="277.818" gradientUnits="userSpaceOnUse">
<stop stop-color="#F7DD43"/>
<stop offset="1" stop-color="#F7DD43" stop-opacity="0"/>
</linearGradient>
<linearGradient id="paint49_linear_175_198" x1="944.5" y1="-21" x2="944.5" y2="277.818" gradientUnits="userSpaceOnUse">
<stop stop-color="#F7DD43"/>
<stop offset="1" stop-color="#F7DD43" stop-opacity="0"/>
</linearGradient>
<linearGradient id="paint50_linear_175_198" x1="944.5" y1="-21" x2="944.5" y2="277.818" gradientUnits="userSpaceOnUse">
<stop stop-color="#F7DD43"/>
<stop offset="1" stop-color="#F7DD43" stop-opacity="0"/>
</linearGradient>
<linearGradient id="paint51_linear_175_198" x1="944.5" y1="-21" x2="944.5" y2="277.818" gradientUnits="userSpaceOnUse">
<stop stop-color="#F7DD43"/>
<stop offset="1" stop-color="#F7DD43" stop-opacity="0"/>
</linearGradient>
<linearGradient id="paint52_linear_175_198" x1="944.5" y1="-21" x2="944.5" y2="277.818" gradientUnits="userSpaceOnUse">
<stop stop-color="#F7DD43"/>
<stop offset="1" stop-color="#F7DD43" stop-opacity="0"/>
</linearGradient>
<linearGradient id="paint53_linear_175_198" x1="944.5" y1="-21" x2="944.5" y2="277.818" gradientUnits="userSpaceOnUse">
<stop stop-color="#F7DD43"/>
<stop offset="1" stop-color="#F7DD43" stop-opacity="0"/>
</linearGradient>
<linearGradient id="paint54_linear_175_198" x1="944.5" y1="-21" x2="944.5" y2="277.818" gradientUnits="userSpaceOnUse">
<stop stop-color="#F7DD43"/>
<stop offset="1" stop-color="#F7DD43" stop-opacity="0"/>
</linearGradient>
<linearGradient id="paint55_linear_175_198" x1="944.5" y1="-21" x2="944.5" y2="277.818" gradientUnits="userSpaceOnUse">
<stop stop-color="#F7DD43"/>
<stop offset="1" stop-color="#F7DD43" stop-opacity="0"/>
</linearGradient>
<linearGradient id="paint56_linear_175_198" x1="944.5" y1="-21" x2="944.5" y2="277.818" gradientUnits="userSpaceOnUse">
<stop stop-color="#F7DD43"/>
<stop offset="1" stop-color="#F7DD43" stop-opacity="0"/>
</linearGradient>
<linearGradient id="paint57_linear_175_198" x1="944.5" y1="-21" x2="944.5" y2="277.818" gradientUnits="userSpaceOnUse">
<stop stop-color="#F7DD43"/>
<stop offset="1" stop-color="#F7DD43" stop-opacity="0"/>
</linearGradient>
<linearGradient id="paint58_linear_175_198" x1="944.5" y1="-21" x2="944.5" y2="277.818" gradientUnits="userSpaceOnUse">
<stop stop-color="#F7DD43"/>
<stop offset="1" stop-color="#F7DD43" stop-opacity="0"/>
</linearGradient>
<linearGradient id="paint59_linear_175_198" x1="944.5" y1="-21" x2="944.5" y2="277.818" gradientUnits="userSpaceOnUse">
<stop stop-color="#F7DD43"/>
<stop offset="1" stop-color="#F7DD43" stop-opacity="0"/>
</linearGradient>
<linearGradient id="paint60_linear_175_198" x1="944.5" y1="-21" x2="944.5" y2="277.818" gradientUnits="userSpaceOnUse">
<stop stop-color="#F7DD43"/>
<stop offset="1" stop-color="#F7DD43" stop-opacity="0"/>
</linearGradient>
<linearGradient id="paint61_linear_175_198" x1="944.5" y1="-21" x2="944.5" y2="277.818" gradientUnits="userSpaceOnUse">
<stop stop-color="#F7DD43"/>
<stop offset="1" stop-color="#F7DD43" stop-opacity="0"/>
</linearGradient>
<linearGradient id="paint62_linear_175_198" x1="944.5" y1="-21" x2="944.5" y2="277.818" gradientUnits="userSpaceOnUse">
<stop stop-color="#F7DD43"/>
<stop offset="1" stop-color="#F7DD43" stop-opacity="0"/>
</linearGradient>
<linearGradient id="paint63_linear_175_198" x1="944.5" y1="-21" x2="944.5" y2="277.818" gradientUnits="userSpaceOnUse">
<stop stop-color="#F7DD43"/>
<stop offset="1" stop-color="#F7DD43" stop-opacity="0"/>
</linearGradient>
<linearGradient id="paint64_linear_175_198" x1="944.5" y1="-21" x2="944.5" y2="277.818" gradientUnits="userSpaceOnUse">
<stop stop-color="#F7DD43"/>
<stop offset="1" stop-color="#F7DD43" stop-opacity="0"/>
</linearGradient>
<linearGradient id="paint65_linear_175_198" x1="944.5" y1="-21" x2="944.5" y2="277.818" gradientUnits="userSpaceOnUse">
<stop stop-color="#F7DD43"/>
<stop offset="1" stop-color="#F7DD43" stop-opacity="0"/>
</linearGradient>
<linearGradient id="paint66_linear_175_198" x1="944.5" y1="-21" x2="944.5" y2="277.818" gradientUnits="userSpaceOnUse">
<stop stop-color="#F7DD43"/>
<stop offset="1" stop-color="#F7DD43" stop-opacity="0"/>
</linearGradient>
<linearGradient id="paint67_linear_175_198" x1="944.5" y1="-21" x2="944.5" y2="277.818" gradientUnits="userSpaceOnUse">
<stop stop-color="#F7DD43"/>
<stop offset="1" stop-color="#F7DD43" stop-opacity="0"/>
</linearGradient>
<linearGradient id="paint68_linear_175_198" x1="944.5" y1="-21" x2="944.5" y2="277.818" gradientUnits="userSpaceOnUse">
<stop stop-color="#F7DD43"/>
<stop offset="1" stop-color="#F7DD43" stop-opacity="0"/>
</linearGradient>
<linearGradient id="paint69_linear_175_198" x1="944.5" y1="-21" x2="944.5" y2="277.818" gradientUnits="userSpaceOnUse">
<stop stop-color="#F7DD43"/>
<stop offset="1" stop-color="#F7DD43" stop-opacity="0"/>
</linearGradient>
<linearGradient id="paint70_linear_175_198" x1="944.5" y1="-21" x2="944.5" y2="277.818" gradientUnits="userSpaceOnUse">
<stop stop-color="#F7DD43"/>
<stop offset="1" stop-color="#F7DD43" stop-opacity="0"/>
</linearGradient>
<linearGradient id="paint71_linear_175_198" x1="944.5" y1="-21" x2="944.5" y2="277.818" gradientUnits="userSpaceOnUse">
<stop stop-color="#F7DD43"/>
<stop offset="1" stop-color="#F7DD43" stop-opacity="0"/>
</linearGradient>
<linearGradient id="paint72_linear_175_198" x1="944.5" y1="-21" x2="944.5" y2="277.818" gradientUnits="userSpaceOnUse">
<stop stop-color="#F7DD43"/>
<stop offset="1" stop-color="#F7DD43" stop-opacity="0"/>
</linearGradient>
<linearGradient id="paint73_linear_175_198" x1="944.5" y1="-21" x2="944.5" y2="277.818" gradientUnits="userSpaceOnUse">
<stop stop-color="#F7DD43"/>
<stop offset="1" stop-color="#F7DD43" stop-opacity="0"/>
</linearGradient>
<linearGradient id="paint74_linear_175_198" x1="944.5" y1="-21" x2="944.5" y2="277.818" gradientUnits="userSpaceOnUse">
<stop stop-color="#F7DD43"/>
<stop offset="1" stop-color="#F7DD43" stop-opacity="0"/>
</linearGradient>
<linearGradient id="paint75_linear_175_198" x1="944.5" y1="-21" x2="944.5" y2="277.818" gradientUnits="userSpaceOnUse">
<stop stop-color="#F7DD43"/>
<stop offset="1" stop-color="#F7DD43" stop-opacity="0"/>
</linearGradient>
<linearGradient id="paint76_linear_175_198" x1="944.5" y1="-21" x2="944.5" y2="277.818" gradientUnits="userSpaceOnUse">
<stop stop-color="#F7DD43"/>
<stop offset="1" stop-color="#F7DD43" stop-opacity="0"/>
</linearGradient>
<linearGradient id="paint77_linear_175_198" x1="944.5" y1="-21" x2="944.5" y2="277.818" gradientUnits="userSpaceOnUse">
<stop stop-color="#F7DD43"/>
<stop offset="1" stop-color="#F7DD43" stop-opacity="0"/>
</linearGradient>
<linearGradient id="paint78_linear_175_198" x1="944.5" y1="-21" x2="944.5" y2="277.818" gradientUnits="userSpaceOnUse">
<stop stop-color="#F7DD43"/>
<stop offset="1" stop-color="#F7DD43" stop-opacity="0"/>
</linearGradient>
<linearGradient id="paint79_linear_175_198" x1="944.5" y1="-21" x2="944.5" y2="277.818" gradientUnits="userSpaceOnUse">
<stop stop-color="#F7DD43"/>
<stop offset="1" stop-color="#F7DD43" stop-opacity="0"/>
</linearGradient>
<linearGradient id="paint80_linear_175_198" x1="944.5" y1="-21" x2="944.5" y2="277.818" gradientUnits="userSpaceOnUse">
<stop stop-color="#F7DD43"/>
<stop offset="1" stop-color="#F7DD43" stop-opacity="0"/>
</linearGradient>
<linearGradient id="paint81_linear_175_198" x1="944.5" y1="-21" x2="944.5" y2="277.818" gradientUnits="userSpaceOnUse">
<stop stop-color="#F7DD43"/>
<stop offset="1" stop-color="#F7DD43" stop-opacity="0"/>
</linearGradient>
<linearGradient id="paint82_linear_175_198" x1="944.5" y1="-21" x2="944.5" y2="277.818" gradientUnits="userSpaceOnUse">
<stop stop-color="#F7DD43"/>
<stop offset="1" stop-color="#F7DD43" stop-opacity="0"/>
</linearGradient>
<linearGradient id="paint83_linear_175_198" x1="944.5" y1="-21" x2="944.5" y2="277.818" gradientUnits="userSpaceOnUse">
<stop stop-color="#F7DD43"/>
<stop offset="1" stop-color="#F7DD43" stop-opacity="0"/>
</linearGradient>
<linearGradient id="paint84_linear_175_198" x1="944.5" y1="-21" x2="944.5" y2="277.818" gradientUnits="userSpaceOnUse">
<stop stop-color="#F7DD43"/>
<stop offset="1" stop-color="#F7DD43" stop-opacity="0"/>
</linearGradient>
<linearGradient id="paint85_linear_175_198" x1="944.5" y1="-21" x2="944.5" y2="277.818" gradientUnits="userSpaceOnUse">
<stop stop-color="#F7DD43"/>
<stop offset="1" stop-color="#F7DD43" stop-opacity="0"/>
</linearGradient>
<linearGradient id="paint86_linear_175_198" x1="944.5" y1="-21" x2="944.5" y2="277.818" gradientUnits="userSpaceOnUse">
<stop stop-color="#F7DD43"/>
<stop offset="1" stop-color="#F7DD43" stop-opacity="0"/>
</linearGradient>
<linearGradient id="paint87_linear_175_198" x1="944.5" y1="-21" x2="944.5" y2="277.818" gradientUnits="userSpaceOnUse">
<stop stop-color="#F7DD43"/>
<stop offset="1" stop-color="#F7DD43" stop-opacity="0"/>
</linearGradient>
<linearGradient id="paint88_linear_175_198" x1="944.5" y1="-21" x2="944.5" y2="277.818" gradientUnits="userSpaceOnUse">
<stop stop-color="#F7DD43"/>
<stop offset="1" stop-color="#F7DD43" stop-opacity="0"/>
</linearGradient>
<linearGradient id="paint89_linear_175_198" x1="944.5" y1="-21" x2="944.5" y2="277.818" gradientUnits="userSpaceOnUse">
<stop stop-color="#F7DD43"/>
<stop offset="1" stop-color="#F7DD43" stop-opacity="0"/>
</linearGradient>
<linearGradient id="paint90_linear_175_198" x1="944.5" y1="-21" x2="944.5" y2="277.818" gradientUnits="userSpaceOnUse">
<stop stop-color="#F7DD43"/>
<stop offset="1" stop-color="#F7DD43" stop-opacity="0"/>
</linearGradient>
<linearGradient id="paint91_linear_175_198" x1="944.5" y1="-21" x2="944.5" y2="277.818" gradientUnits="userSpaceOnUse">
<stop stop-color="#F7DD43"/>
<stop offset="1" stop-color="#F7DD43" stop-opacity="0"/>
</linearGradient>
<linearGradient id="paint92_linear_175_198" x1="944.5" y1="-21" x2="944.5" y2="277.818" gradientUnits="userSpaceOnUse">
<stop stop-color="#F7DD43"/>
<stop offset="1" stop-color="#F7DD43" stop-opacity="0"/>
</linearGradient>
<linearGradient id="paint93_linear_175_198" x1="944.5" y1="-21" x2="944.5" y2="277.818" gradientUnits="userSpaceOnUse">
<stop stop-color="#F7DD43"/>
<stop offset="1" stop-color="#F7DD43" stop-opacity="0"/>
</linearGradient>
</defs>
</svg>
